<svg xmlns="http://www.w3.org/2000/svg" width="36.986" height="24.088" viewBox="0 0 36.986 24.088">
    <g id="Group_576" data-name="Group 576" transform="translate(-203.148 -281.255)">
        <path id="Path_78" data-name="Path 78" d="M4746.623,115.673l-12.013,12.014-4.949.13.13-4.948,12.013-12.014Z" transform="translate(-4522.549 173.599)" fill="#182752" />
        <rect id="Rectangle_157" data-name="Rectangle 157" width="7.501" height="1.672" transform="translate(203.148 304.161) rotate(-45)" fill="#182752" />
        <path id="Path_79" data-name="Path 79" d="M4754.171,163.6l-7.447,7.446-3.065.08.081-3.067,7.445-7.446Z" transform="translate(-4535.125 128.896)" fill="#fff" />
        <rect id="Rectangle_158" data-name="Rectangle 158" width="7.053" height="1.475" rx="0.737" transform="translate(222.38 281.255) rotate(45)" fill="#182752" />
        <rect id="Rectangle_159" data-name="Rectangle 159" width="2.413" height="2.693" transform="translate(220.9 285.817) rotate(-45)" fill="#182752" />
        <rect id="Rectangle_160" data-name="Rectangle 160" width="2.939" height="0.953" transform="translate(210.826 293.863) rotate(45)" fill="#182752" />
        <rect id="Rectangle_161" data-name="Rectangle 161" width="2.939" height="0.953" transform="translate(213.318 291.371) rotate(45)" fill="#182752" />
        <path id="Path_78-2" data-name="Path 78" d="M4746.623,115.673l-12.013,12.014-4.949.13.13-4.948,12.013-12.014Z" transform="translate(-4509.782 173.599)" fill="#182752" />
        <rect id="Rectangle_157-2" data-name="Rectangle 157" width="7.501" height="1.672" transform="translate(215.915 304.161) rotate(-45)" fill="#182752" />
        <path id="Path_79-2" data-name="Path 79" d="M4754.171,163.6l-7.447,7.446-3.065.08.081-3.067,7.445-7.446Z" transform="translate(-4522.357 128.896)" fill="#fff" />
        <rect id="Rectangle_158-2" data-name="Rectangle 158" width="7.053" height="1.475" rx="0.737" transform="translate(235.147 281.255) rotate(45)" fill="#182752" />
        <rect id="Rectangle_159-2" data-name="Rectangle 159" width="2.413" height="2.693" transform="translate(233.667 285.818) rotate(-45)" fill="#182752" />
        <rect id="Rectangle_160-2" data-name="Rectangle 160" width="2.939" height="0.953" transform="translate(223.593 293.863) rotate(45)" fill="#182752" />
        <rect id="Rectangle_161-2" data-name="Rectangle 161" width="2.939" height="0.953" transform="translate(226.085 291.372) rotate(45)" fill="#182752" />
    </g>
</svg>
  